<mxfile host="app.diagrams.net" modified="2023-10-17T20:22:57.052Z" agent="Mozilla/5.0 (Windows NT 10.0; Win64; x64) AppleWebKit/537.36 (KHTML, like Gecko) Chrome/115.0.0.0 Safari/537.36" etag="Rn_GMukMYCP0sds5QQ7E" version="22.0.4" type="github">
  <diagram name="Page-1" id="wvW3ehxdYdoYtSaxa3fH">
    <mxGraphModel dx="891" dy="548" grid="1" gridSize="10" guides="1" tooltips="1" connect="1" arrows="1" fold="1" page="1" pageScale="1" pageWidth="850" pageHeight="1100" math="0" shadow="0">
      <root>
        <mxCell id="0" />
        <mxCell id="1" parent="0" />
        <mxCell id="NKeEgVbL9whLPdXC6YmX-3" value="" style="edgeStyle=orthogonalEdgeStyle;rounded=0;orthogonalLoop=1;jettySize=auto;html=1;" edge="1" parent="1" source="NKeEgVbL9whLPdXC6YmX-1" target="NKeEgVbL9whLPdXC6YmX-2">
          <mxGeometry relative="1" as="geometry" />
        </mxCell>
        <mxCell id="NKeEgVbL9whLPdXC6YmX-1" value="Crowdstrike Event Correlation" style="rounded=1;whiteSpace=wrap;html=1;" vertex="1" parent="1">
          <mxGeometry x="70" y="1060" width="120" height="60" as="geometry" />
        </mxCell>
        <mxCell id="NKeEgVbL9whLPdXC6YmX-5" value="" style="edgeStyle=orthogonalEdgeStyle;rounded=0;orthogonalLoop=1;jettySize=auto;html=1;" edge="1" parent="1" source="NKeEgVbL9whLPdXC6YmX-2" target="NKeEgVbL9whLPdXC6YmX-4">
          <mxGeometry relative="1" as="geometry" />
        </mxCell>
        <mxCell id="NKeEgVbL9whLPdXC6YmX-2" value="Triggers&lt;br&gt;- On Event Ingestion" style="whiteSpace=wrap;html=1;rounded=1;" vertex="1" parent="1">
          <mxGeometry x="270" y="1060" width="120" height="60" as="geometry" />
        </mxCell>
        <mxCell id="NKeEgVbL9whLPdXC6YmX-9" value="" style="edgeStyle=orthogonalEdgeStyle;rounded=0;orthogonalLoop=1;jettySize=auto;html=1;entryX=0;entryY=0.5;entryDx=0;entryDy=0;" edge="1" parent="1" source="NKeEgVbL9whLPdXC6YmX-4" target="NKeEgVbL9whLPdXC6YmX-22">
          <mxGeometry relative="1" as="geometry">
            <mxPoint x="680" y="1090" as="targetPoint" />
          </mxGeometry>
        </mxCell>
        <mxCell id="NKeEgVbL9whLPdXC6YmX-4" value="Correlation" style="whiteSpace=wrap;html=1;rounded=1;" vertex="1" parent="1">
          <mxGeometry x="470" y="1060" width="120" height="60" as="geometry" />
        </mxCell>
        <mxCell id="NKeEgVbL9whLPdXC6YmX-11" value="" style="edgeStyle=orthogonalEdgeStyle;rounded=0;orthogonalLoop=1;jettySize=auto;html=1;" edge="1" parent="1" source="NKeEgVbL9whLPdXC6YmX-8" target="NKeEgVbL9whLPdXC6YmX-10">
          <mxGeometry relative="1" as="geometry" />
        </mxCell>
        <mxCell id="NKeEgVbL9whLPdXC6YmX-16" value="True" style="edgeLabel;html=1;align=center;verticalAlign=middle;resizable=0;points=[];" vertex="1" connectable="0" parent="NKeEgVbL9whLPdXC6YmX-11">
          <mxGeometry x="0.1515" y="-3" relative="1" as="geometry">
            <mxPoint as="offset" />
          </mxGeometry>
        </mxCell>
        <mxCell id="NKeEgVbL9whLPdXC6YmX-14" value="" style="edgeStyle=orthogonalEdgeStyle;rounded=0;orthogonalLoop=1;jettySize=auto;html=1;" edge="1" parent="1" source="NKeEgVbL9whLPdXC6YmX-8" target="NKeEgVbL9whLPdXC6YmX-13">
          <mxGeometry relative="1" as="geometry" />
        </mxCell>
        <mxCell id="NKeEgVbL9whLPdXC6YmX-17" value="False" style="edgeLabel;html=1;align=center;verticalAlign=middle;resizable=0;points=[];" vertex="1" connectable="0" parent="NKeEgVbL9whLPdXC6YmX-14">
          <mxGeometry x="0.0417" y="-4" relative="1" as="geometry">
            <mxPoint as="offset" />
          </mxGeometry>
        </mxCell>
        <mxCell id="NKeEgVbL9whLPdXC6YmX-8" value="Any Incident Linked?" style="rhombus;whiteSpace=wrap;html=1;rounded=1;" vertex="1" parent="1">
          <mxGeometry x="870" y="1040" width="100" height="100" as="geometry" />
        </mxCell>
        <mxCell id="NKeEgVbL9whLPdXC6YmX-10" value="Added to the Related Incident" style="whiteSpace=wrap;html=1;rounded=1;" vertex="1" parent="1">
          <mxGeometry x="1129" y="990" width="120" height="60" as="geometry" />
        </mxCell>
        <mxCell id="NKeEgVbL9whLPdXC6YmX-19" value="" style="edgeStyle=orthogonalEdgeStyle;rounded=0;orthogonalLoop=1;jettySize=auto;html=1;" edge="1" parent="1" source="NKeEgVbL9whLPdXC6YmX-13" target="NKeEgVbL9whLPdXC6YmX-18">
          <mxGeometry relative="1" as="geometry" />
        </mxCell>
        <mxCell id="NKeEgVbL9whLPdXC6YmX-13" value="Check Artifacts" style="whiteSpace=wrap;html=1;rounded=1;" vertex="1" parent="1">
          <mxGeometry x="1129" y="1140" width="120" height="60" as="geometry" />
        </mxCell>
        <mxCell id="NKeEgVbL9whLPdXC6YmX-21" value="" style="edgeStyle=orthogonalEdgeStyle;rounded=0;orthogonalLoop=1;jettySize=auto;html=1;" edge="1" parent="1" source="NKeEgVbL9whLPdXC6YmX-18" target="NKeEgVbL9whLPdXC6YmX-20">
          <mxGeometry relative="1" as="geometry" />
        </mxCell>
        <mxCell id="NKeEgVbL9whLPdXC6YmX-18" value="Escalate to Incident" style="whiteSpace=wrap;html=1;rounded=1;" vertex="1" parent="1">
          <mxGeometry x="1329" y="1140" width="120" height="60" as="geometry" />
        </mxCell>
        <mxCell id="NKeEgVbL9whLPdXC6YmX-20" value="Passdown" style="whiteSpace=wrap;html=1;rounded=1;" vertex="1" parent="1">
          <mxGeometry x="1529" y="1140" width="120" height="60" as="geometry" />
        </mxCell>
        <mxCell id="NKeEgVbL9whLPdXC6YmX-23" value="" style="edgeStyle=orthogonalEdgeStyle;rounded=0;orthogonalLoop=1;jettySize=auto;html=1;" edge="1" parent="1" source="NKeEgVbL9whLPdXC6YmX-22" target="NKeEgVbL9whLPdXC6YmX-8">
          <mxGeometry relative="1" as="geometry" />
        </mxCell>
        <mxCell id="NKeEgVbL9whLPdXC6YmX-22" value="Link Incident with Same ID&lt;br&gt;Command - Link to Related Event Incident" style="rounded=1;whiteSpace=wrap;html=1;" vertex="1" parent="1">
          <mxGeometry x="660" y="1060" width="150" height="60" as="geometry" />
        </mxCell>
        <mxCell id="NKeEgVbL9whLPdXC6YmX-24" value="" style="endArrow=none;html=1;rounded=0;" edge="1" parent="1">
          <mxGeometry width="50" height="50" relative="1" as="geometry">
            <mxPoint x="740" y="1060" as="sourcePoint" />
            <mxPoint x="740" y="990" as="targetPoint" />
          </mxGeometry>
        </mxCell>
        <mxCell id="NKeEgVbL9whLPdXC6YmX-28" value="&lt;h1&gt;API Response&lt;/h1&gt;&lt;p style=&quot;line-height: 50%;&quot;&gt;{&lt;/p&gt;&lt;p style=&quot;line-height: 50%;&quot;&gt;&amp;nbsp; &quot;Escalate Incidents&quot;: [&lt;/p&gt;&lt;p style=&quot;line-height: 50%;&quot;&gt;&amp;nbsp; &amp;nbsp; &quot;20230425-1573&quot;&lt;/p&gt;&lt;p style=&quot;line-height: 50%;&quot;&gt;&amp;nbsp; ]&lt;/p&gt;&lt;p style=&quot;line-height: 50%;&quot;&gt;}&lt;/p&gt;" style="text;html=1;spacing=5;spacingTop=-20;whiteSpace=wrap;overflow=hidden;rounded=0;strokeColor=default;fillColor=default;" vertex="1" parent="1">
          <mxGeometry x="650" y="830" width="180" height="160" as="geometry" />
        </mxCell>
        <mxCell id="NKeEgVbL9whLPdXC6YmX-33" value="" style="endArrow=none;html=1;rounded=0;entryX=0.504;entryY=0.98;entryDx=0;entryDy=0;entryPerimeter=0;" edge="1" parent="1" target="NKeEgVbL9whLPdXC6YmX-8">
          <mxGeometry width="50" height="50" relative="1" as="geometry">
            <mxPoint x="920" y="1190" as="sourcePoint" />
            <mxPoint x="930.86" y="1140" as="targetPoint" />
            <Array as="points">
              <mxPoint x="920" y="1160" />
            </Array>
          </mxGeometry>
        </mxCell>
        <mxCell id="NKeEgVbL9whLPdXC6YmX-45" value="&lt;h1&gt;Condition Type - Input&lt;/h1&gt;&lt;p&gt;{% set returnData = PlaybookData | jsonpath(&#39;$.[&quot;Link Incident with Same ID&quot;].returnData&#39;) | string_to_json_object%}&lt;/p&gt;&lt;p&gt;&lt;br&gt;&lt;/p&gt;&lt;p&gt;{{returnData|jsonpath(&#39;$.[&quot;Escalate to Incidents&quot;]&#39;)|to_list|length &amp;gt; 0}}&lt;/p&gt;" style="text;html=1;strokeColor=default;fillColor=default;spacing=5;spacingTop=-20;whiteSpace=wrap;overflow=hidden;rounded=0;" vertex="1" parent="1">
          <mxGeometry x="825" y="1190" width="190" height="240" as="geometry" />
        </mxCell>
        <mxCell id="NKeEgVbL9whLPdXC6YmX-48" value="&lt;h1&gt;Data Formatter&lt;br&gt;&lt;/h1&gt;&lt;p&gt;{{{&quot;EscalateTo&quot;: PlaybookData | jsonpath(&#39;$.[&quot;Check Artifacts&quot;].returnData.Data[*].IncidentNo&#39;)|to_list}}}&lt;br&gt;&lt;/p&gt;" style="text;html=1;strokeColor=default;fillColor=default;spacing=5;spacingTop=-20;whiteSpace=wrap;overflow=hidden;rounded=0;" vertex="1" parent="1">
          <mxGeometry x="1220" y="1300" width="360" height="100" as="geometry" />
        </mxCell>
        <mxCell id="NKeEgVbL9whLPdXC6YmX-49" value="" style="endArrow=none;html=1;rounded=0;entryX=0.592;entryY=1.016;entryDx=0;entryDy=0;entryPerimeter=0;exitX=0.473;exitY=0;exitDx=0;exitDy=0;exitPerimeter=0;" edge="1" parent="1" source="NKeEgVbL9whLPdXC6YmX-48">
          <mxGeometry width="50" height="50" relative="1" as="geometry">
            <mxPoint x="1330" y="1249.04" as="sourcePoint" />
            <mxPoint x="1390.04" y="1200" as="targetPoint" />
          </mxGeometry>
        </mxCell>
        <mxCell id="NKeEgVbL9whLPdXC6YmX-50" value="" style="rounded=0;whiteSpace=wrap;html=1;fillColor=none;" vertex="1" parent="1">
          <mxGeometry x="60" y="760" width="1600" height="740" as="geometry" />
        </mxCell>
        <mxCell id="NKeEgVbL9whLPdXC6YmX-52" value="&lt;font style=&quot;font-size: 24px;&quot;&gt;Nested Playbook For CrowdStrike&lt;/font&gt;" style="text;html=1;strokeColor=#6c8ebf;fillColor=#dae8fc;align=center;verticalAlign=middle;whiteSpace=wrap;rounded=0;" vertex="1" parent="1">
          <mxGeometry x="90" y="780" width="320" height="70" as="geometry" />
        </mxCell>
      </root>
    </mxGraphModel>
  </diagram>
</mxfile>
